<svg viewBox="0 0 137 137" xmlns="http://www.w3.org/2000/svg"><path fill="#004481" d="M0 0h137v137H0z"/><g fill="#fff"><path class="a" d="M37.4 68.5c0-17.8 13.9-32.3 31.1-32.3s31.1 14.5 31.1 32.3-14 32.3-31.1 32.3-31.1-14.5-31.1-32.3m31 24.5C81.4 93 92 82 92 68.5S81.5 44 68.4 44 44.7 55 44.7 68.5 55.3 93 68.4 93"/><path class="a" d="M105.7 50.4a44 44 0 010 36.2h-8.4a36 36 0 000-36.2zm-66 0a36 36 0 000 36.1h-8.4a44 44 0 010-36zm14.8 0h10v36.2h-10zM83 86.6l-8.5-18L83 50.4H73l-8.4 18L73 86.6z"/><path class="a" d="M25 68.5a46.4 46.4 0 013.5-18H21l-8.4 18 8.4 18h7.5a46.4 46.4 0 01-3.6-18m87.2 0a46.4 46.4 0 00-3.6-18h7.5l8.4 18-8.4 18h-7.5a46.4 46.4 0 003.6-18"/></g></svg>